<?xml version="1.0" encoding="UTF-8"?>
<svg width="60px" height="38px" viewBox="0 0 60 38" version="1.1" xmlns="http://www.w3.org/2000/svg" xmlns:xlink="http://www.w3.org/1999/xlink">
    <title>825E2821-1AB9-4BBB-80B9-AF22E1362D0B@2x</title>
    <defs>
        <polygon id="path-1" points="0 13 50 13 50 0 0 0"></polygon>
    </defs>
    <g id="Symbols" stroke="none" stroke-width="1" fill="none" fill-rule="evenodd">
        <g id="00-Logos/Payments/Alipay">
            <rect id="Background" stroke="#D2D2D2" stroke-width="0.5" fill="#FFFFFF" x="0.25" y="0.25" width="59.5" height="37.5" rx="3.20000005"></rect>
            <g id="Alipay-Logo" transform="translate(5.000000, 13.000000)">
                <path d="M10.4990683,0 L2.00255545,0 C0.89606031,0 0,0.932102581 0,2.08264958 L0,10.9177157 C0,12.0675321 0.89606031,13 2.00255545,13 L10.4990683,13 C11.6053272,13 12.5009152,12.0675321 12.5009152,10.9177157 L12.5009152,2.08264958 C12.5009152,0.932102581 11.6053272,0 10.4990683,0" id="Fill-1" fill="#1677FF"></path>
                <path d="M3.37785687,9.99705893 C1.43304701,9.99705893 0.858071038,8.40402195 1.81919846,7.53243603 C2.13992853,7.23788918 2.72612297,7.09408602 3.03846871,7.06181859 C4.19373466,6.9430988 5.26314981,7.40141808 6.52528643,8.04201791 C5.6380828,9.24541044 4.50820601,9.99705893 3.37785687,9.99705893 M10.2924477,8.16280769 C9.79234027,7.98856356 9.12100357,7.72214417 8.37338129,7.44086958 C8.82247425,6.62919149 9.18099285,5.7048818 9.41669875,4.7003297 L6.95253289,4.7003297 L6.95253289,3.77735941 L9.97112721,3.77735941 L9.97112721,3.26217639 L6.95253289,3.26217639 L6.95253289,1.72356787 L5.7206271,1.72356787 C5.50452399,1.72356787 5.50452399,1.94542168 5.50452399,1.94542168 L5.50452399,3.26217639 L2.45156574,3.26217639 L2.45156574,3.77735941 L5.50452399,3.77735941 L5.50452399,4.7003297 L2.98391154,4.7003297 L2.98391154,5.21539096 L7.8725653,5.21539096 C7.69366027,5.85635608 7.45346698,6.45811322 7.16839982,7.00483309 C5.58210855,6.4605485 3.88941898,6.01939792 2.82602637,6.2909314 C2.14606917,6.46517553 1.70807659,6.7761605 1.45064229,7.10200067 C0.269632908,8.59628714 1.11668623,10.8659661 3.61084672,10.8659661 C5.08554377,10.8659661 6.50615599,10.01094 7.60733711,8.60188828 C9.24948454,9.42282043 12.5009506,10.8323592 12.5009506,10.8323592 L12.5009506,8.82349856 C12.5009506,8.82349856 12.0925984,8.7896482 10.2924477,8.16280769" id="Fill-3" fill="#FFFFFF"></path>
                <path d="M27.1446757,1.90309655 C27.1446757,2.57559852 27.6212834,3.02831666 28.2861252,3.02831666 C28.950967,3.02831666 29.4275748,2.57559852 29.4275748,1.90309655 C29.4275748,1.24350155 28.950967,0.777754674 28.2861252,0.777754674 C27.6212834,0.777754674 27.1446757,1.24350155 27.1446757,1.90309655" id="Fill-5" fill="#1677FF"></path>
                <mask id="mask-2" fill="white">
                    <use xlink:href="#path-1"></use>
                </mask>
                <g id="Clip-8"></g>
                <polygon id="Fill-7" fill="#000000" mask="url(#mask-2)" points="23.958631 10.5042055 25.9405209 10.5042055 25.9405209 1.06238994 23.958631 1.06238994"></polygon>
                <path d="M17.5988347,7.23186186 L18.7779546,3.02832884 L18.8281425,3.02832884 L19.9445572,7.23186186 L17.5988347,7.23186186 Z M20.4839883,1.38573396 L17.8246211,1.38573396 L14.8517273,10.5042664 L16.6831716,10.5042664 L17.1849323,8.71932955 L20.3334247,8.71932955 L20.8100324,10.5042664 L23.1557548,10.5042664 L20.4839883,1.38573396 Z" id="Fill-9" fill="#000000" mask="url(#mask-2)"></path>
                <polygon id="Fill-10" fill="#000000" mask="url(#mask-2)" points="27.2952394 10.5042055 29.2771292 10.5042055 29.2771292 3.57157843 27.2952394 3.57157843"></polygon>
                <polygon id="Fill-11" fill="#000000" mask="url(#mask-2)" points="49.9875416 3.58448541 50.000059 3.57157843 48.1310624 3.57157843 46.9519424 7.78801843 46.8892371 7.78801843 45.5345186 3.57157843 43.3142068 3.57157843 45.9860915 10.5301412 44.8696768 12.6512682 44.8696768 12.7030179 46.6132628 12.7030179"></polygon>
                <path d="M32.9527242,9.31428009 C32.7270559,9.31428009 32.5136688,9.28846615 32.275483,9.21078079 L32.275483,5.45996591 C32.6893854,5.16249672 33.0280651,5.02015473 33.4544849,5.02015473 C34.1946676,5.02015473 34.7841685,5.62812184 34.7841685,6.92149788 C34.7841685,8.57699974 33.9186933,9.31428009 32.9527242,9.31428009 M34.207185,3.42930951 C33.4796379,3.42930951 32.9151719,3.71387172 32.275483,4.25706043 L32.275483,3.57152973 L30.2934751,3.57152973 L30.2934751,12.7029692 L32.275483,12.7029692 L32.275483,10.4395002 C32.651715,10.5429995 33.0029121,10.5947492 33.42945,10.5947492 C35.1980709,10.5947492 36.7912113,9.24962347 36.7912113,6.85684126 C36.7912113,4.70977858 35.6371263,3.42930951 34.207185,3.42930951" id="Fill-12" fill="#000000" mask="url(#mask-2)"></path>
                <path d="M40.9434613,8.82276797 C40.4166657,9.12023716 40.1155384,9.23664344 39.7644594,9.23664344 C39.2877336,9.23664344 38.9867244,8.91336031 38.9867244,8.39598554 C38.9867244,8.2018939 39.0242768,8.00792402 39.1748404,7.85279682 C39.4131443,7.60695553 39.8773526,7.42589262 40.9434613,7.16726612 L40.9434613,8.82276797 Z M42.9253511,8.77101832 L42.9253511,5.87389008 C42.9253511,4.29583006 42.0223236,3.42935821 40.4293012,3.42935821 C39.4131443,3.42935821 38.7107501,3.61029935 37.4312544,4.01126784 L37.7824515,5.60223484 C38.949054,5.05892436 39.4633321,4.8261118 40.0027633,4.8261118 C40.6550876,4.8261118 40.9434613,5.30464389 40.9434613,6.04192424 L40.9434613,6.0936739 C38.6730797,6.53348507 37.9705675,6.7792046 37.5316302,7.23192275 C37.205468,7.56823461 37.0675399,8.0467667 37.0675399,8.60286239 C37.0675399,9.93508111 38.0710613,10.6465475 39.0118774,10.6465475 C39.7142715,10.6465475 40.2786195,10.3748923 41.0439551,9.77983215 L41.1818832,10.5042055 L43.1637731,10.5042055 L42.9253511,8.77101832 Z" id="Fill-13" fill="#000000" mask="url(#mask-2)"></path>
            </g>
        </g>
    </g>
</svg>