<?xml version="1.0" encoding="UTF-8"?>
<svg width="40px" height="24.912892px" viewBox="0 0 40 24.912892" version="1.1" xmlns="http://www.w3.org/2000/svg" xmlns:xlink="http://www.w3.org/1999/xlink">
    <title>Amex</title>
    <g id="UXDEV-408---Payment-in-footer" stroke="none" stroke-width="1" fill="none" fill-rule="evenodd">
        <g id="Tech-specs" transform="translate(-677.530769, -268.000000)">
            <g id="Censimento-Componenti" transform="translate(-35.000000, 40.000000)">
                <g id="Loghi" transform="translate(657.530769, 133.000000)">
                    <g id="Amex" transform="translate(55.000000, 95.000000)">
                        <rect id="Rectangle-1" fill="#016FD0" fill-rule="nonzero" x="0" y="0" width="40" height="24.912892" rx="2.18947368"></rect>
                        <rect id="Background" stroke="#D2D2D2" stroke-width="0.342105263" x="0.171052632" y="0.171052632" width="39.6578947" height="24.5707867" rx="2.18947372"></rect>
                        <g id="Amex-Logo" transform="translate(0.000000, 5.244819)" fill-rule="nonzero">
                            <path d="M7.76488777,14.1868065 L7.76488777,8.04624646 L14.4142102,8.04624646 L15.1276105,8.95560646 L15.864601,8.04624646 L40,8.04624646 L40,13.7633215 C40,13.7633215 39.3688166,14.1806663 38.6388239,14.1868065 L25.2745554,14.1868065 L24.4702245,13.2188363 L24.4702245,14.1868065 L21.8344934,14.1868065 L21.8344934,12.5344519 C21.8344934,12.5344519 21.4744486,12.7651012 20.696056,12.7651012 L19.7989175,12.7651012 L19.7989175,14.1868065 L15.8081981,14.1868065 L15.0958171,13.2579437 L14.3724982,14.1868065 L7.76488777,14.1868065 Z M0,3.41814185 L1.49944843,0 L4.09258791,0 L4.9435422,1.9147046 L4.9435422,0 L8.16705363,0 L8.67362715,1.38389172 L9.16473307,0 L23.6349575,0 L23.6349575,0.695727606 C23.6349575,0.695727606 24.3956445,0 25.6457852,0 L30.3408436,0.0160444849 L31.1771078,1.90569036 L31.1771078,0 L33.8747101,0 L34.6171698,1.0854494 L34.6171698,0 L37.3395207,0 L37.3395207,6.1405561 L34.6171698,6.1405561 L33.9056461,5.05158962 L33.9056461,6.1405561 L29.9422702,6.1405561 L29.5436969,5.17258589 L28.4782079,5.17258589 L28.0861219,6.1405561 L25.3982987,6.1405561 C24.3225919,6.1405561 23.6349575,5.45903406 23.6349575,5.45903406 L23.6349575,6.1405561 L19.5823669,6.1405561 L18.7780356,5.17258589 L18.7780356,6.1405561 L3.70842997,6.1405561 L3.31013132,5.17258589 L2.24803993,5.17258589 L1.85255627,6.1405561 L0,6.1405561 L0,3.41814185 Z" id="American-Express-2" fill="#FFFFFF"></path>
                            <path d="M2.01779561,0.645646671 L0,5.3352103 L1.31368905,5.3352103 L1.68599742,4.39614662 L3.85040146,4.39614662 L4.2207809,5.3352103 L5.56340585,5.3352103 L3.54753905,0.645646671 L2.01779561,0.645646671 Z M2.7643412,1.73704985 L3.42407964,3.3780158 L2.10267398,3.3780158 L2.7643412,1.73704985 L2.7643412,1.73704985 Z M5.70229784,5.33442246 L5.70229784,0.64485484 L7.56912309,0.651785362 L8.65493211,3.67532038 L9.71474051,0.64485484 L11.5666369,0.64485484 L11.5666369,5.33442246 L10.3937691,5.33442246 L10.3937691,1.87895158 L9.15050449,5.33442246 L8.1218969,5.33442246 L6.87516565,1.87895158 L6.87516565,5.33442246 L5.70229784,5.33442246 Z M12.3691253,5.33442246 L12.3691253,0.64485484 L16.1963782,0.64485484 L16.1963782,1.69383907 L13.5543391,1.69383907 L13.5543391,2.49599996 L16.1346483,2.49599996 L16.1346483,3.48327735 L13.5543391,3.48327735 L13.5543391,4.31629165 L16.1963782,4.31629165 L16.1963782,5.33442246 L12.3691253,5.33442246 Z M16.8754068,0.645646671 L16.8754068,5.3352103 L18.0482746,5.3352103 L18.0482746,3.66918169 L18.5421134,3.66918169 L19.9483975,5.3352103 L21.3816883,5.3352103 L19.8384411,3.60747886 C20.4717992,3.55405425 21.1251232,3.01067417 21.1251232,2.16705812 C21.1251232,1.18020864 20.350243,0.645646671 19.4854234,0.645646671 L16.8754068,0.645646671 L16.8754068,0.645646671 Z M18.0482746,1.6946269 L19.3889704,1.6946269 C19.7105848,1.6946269 19.9445395,1.94610126 19.9445395,2.1882656 C19.9445395,2.49981914 19.6414119,2.6819043 19.4063321,2.6819043 L18.0482746,2.6819043 L18.0482746,1.6946269 L18.0482746,1.6946269 Z M22.8014757,5.33442246 L21.603916,5.33442246 L21.603916,0.64485484 L22.8014757,0.64485484 L22.8014757,5.33442246 Z M29.7229387,0.645646671 L31.7388051,5.3352103 L30.3961801,5.3352103 L30.0258011,4.39614662 L27.8613968,4.39614662 L27.4890886,5.3352103 L26.1753997,5.3352103 L28.1931948,0.645646671 L29.7229387,0.645646671 Z M26.9991077,0.64485484 L26.9991077,1.75554191 L25.6553858,1.75554191 C25.0142221,1.75554191 24.5607771,2.25570321 24.5607771,3.02049207 C24.5607771,3.92868234 25.0792719,4.31012097 25.8262399,4.31012097 L26.134889,4.31012097 L25.6410502,5.33442246 L25.3825563,5.33442246 C24.1318463,5.33442246 23.3724771,4.34946458 23.3724771,3.00892254 C23.3724771,1.63526357 24.1233443,0.64485484 25.7027801,0.64485484 L26.9991077,0.64485484 Z M28.9397408,1.73704985 L28.2780736,3.3780158 L29.5994789,3.3780158 L28.9397408,1.73704985 Z M31.8757683,5.33442246 L31.8757683,0.64485484 L33.3669307,0.64485484 L35.2709119,3.59126231 L35.2709119,0.64485484 L36.4437797,0.64485484 L36.4437797,5.33442246 L35.0008438,5.33442246 L33.0486361,2.31088744 L33.0486361,5.33442246 L31.8757683,5.33442246 Z M8.5418727,13.5411638 L8.5418727,8.85159618 L12.3691253,8.85159618 L12.3691253,9.90058042 L9.72708649,9.90058042 L9.72708649,10.7027413 L12.3073954,10.7027413 L12.3073954,11.6900187 L9.72708649,11.6900187 L9.72708649,12.523033 L12.3691253,12.523033 L12.3691253,13.5411638 L8.5418727,13.5411638 Z M27.2954109,13.5411638 L27.2954109,8.85159618 L31.1226638,8.85159618 L31.1226638,9.90058042 L28.4806247,9.90058042 L28.4806247,10.7027413 L31.048588,10.7027413 L31.048588,11.6900187 L28.4806247,11.6900187 L28.4806247,12.523033 L31.1226638,12.523033 L31.1226638,13.5411638 L27.2954109,13.5411638 Z M12.5176627,13.5411638 L14.3811337,11.2253018 L12.4732946,8.85159618 L13.9509535,8.85159618 L15.0871691,10.3190112 L16.227243,8.85159618 L17.6470304,8.85159618 L15.7642689,11.19638 L17.6311701,13.5411638 L16.1537448,13.5411638 L15.0505172,12.0968799 L13.9741024,13.5411638 L12.5176627,13.5411638 Z M17.7704902,8.85238801 L17.7704902,13.5419516 L18.9742228,13.5419516 L18.9742228,12.0610355 L20.2088205,12.0610355 C21.2534648,12.0610355 22.0452843,11.5070577 22.0452843,10.4297155 C22.0452843,9.53724992 21.4242561,8.85238801 20.3612163,8.85238801 L17.7704902,8.85238801 L17.7704902,8.85238801 Z M18.9742228,9.91293778 L20.2744083,9.91293778 C20.6118918,9.91293778 20.853126,10.1196977 20.853126,10.4528546 C20.853126,10.7658358 20.6131097,10.9927714 20.2705504,10.9927714 L18.9742228,10.9927714 L18.9742228,9.91293778 Z M22.5545561,8.85159618 L22.5545561,13.5411638 L23.7274239,13.5411638 L23.7274239,11.8751312 L24.2212628,11.8751312 L25.6275468,13.5411638 L27.0608376,13.5411638 L25.5175904,11.8134284 C26.1509481,11.7599958 26.8042726,11.2166237 26.8042726,10.3730036 C26.8042726,9.38615815 26.0293923,8.85159618 25.1645727,8.85159618 L22.5545561,8.85159618 L22.5545561,8.85159618 Z M23.7274239,9.90058042 L25.0681197,9.90058042 C25.3897341,9.90058042 25.6236885,10.1520508 25.6236885,10.3942151 C25.6236885,10.7057727 25.3205608,10.8878538 25.0854811,10.8878538 L23.7274239,10.8878538 L23.7274239,9.90058042 L23.7274239,9.90058042 Z M31.6658866,13.5411638 L31.6658866,12.523033 L34.0131657,12.523033 C34.3604787,12.523033 34.5108629,12.335425 34.5108629,12.1296649 C34.5108629,11.932523 34.3609528,11.7332135 34.0131657,11.7332135 L32.9524571,11.7332135 C32.0304509,11.7332135 31.5169635,11.1716973 31.5169635,10.3286571 C31.5169635,9.5767255 31.9871934,8.85159618 33.3572856,8.85159618 L35.6412913,8.85159618 L35.1474521,9.9067471 L33.1720959,9.9067471 C32.7944947,9.9067471 32.6782567,10.1048088 32.6782567,10.2939485 C32.6782567,10.488355 32.8218988,10.7027413 33.110366,10.7027413 L34.2215039,10.7027413 C35.2493137,10.7027413 35.695305,11.285513 35.695305,12.0486782 C35.695305,12.8691552 35.1983243,13.5411638 34.1655515,13.5411638 L31.6658866,13.5411638 Z M35.9705821,13.5411638 L35.9705821,12.523033 L38.3178596,12.523033 C38.6651746,12.523033 38.8155596,12.335425 38.8155596,12.1296649 C38.8155596,11.932523 38.6656466,11.7332135 38.3178596,11.7332135 L37.2571526,11.7332135 C36.3351464,11.7332135 35.8216585,11.1716973 35.8216585,10.3286571 C35.8216585,9.5767255 36.2918884,8.85159618 37.6619807,8.85159618 L39.9459856,8.85159618 L39.4521463,9.9067471 L37.476791,9.9067471 C37.0991901,9.9067471 36.9829521,10.1048088 36.9829521,10.2939485 C36.9829521,10.488355 37.1265938,10.7027413 37.415061,10.7027413 L38.5261997,10.7027413 C39.55401,10.7027413 40,11.285513 40,12.0486782 C40,12.8691552 39.5030201,13.5411638 38.470245,13.5411638 L35.9705821,13.5411638 Z" id="American-Express" fill="#016FD0"></path>
                        </g>
                    </g>
                </g>
            </g>
        </g>
    </g>
</svg>