<?xml version="1.0" encoding="UTF-8"?>
<svg width="60px" height="38px" viewBox="0 0 60 38" version="1.1" xmlns="http://www.w3.org/2000/svg" xmlns:xlink="http://www.w3.org/1999/xlink">
    <title>FFDC6AF3-006A-40C2-95E9-7612691C82A1@2x</title>
    <g id="Symbols" stroke="none" stroke-width="1" fill="none" fill-rule="evenodd">
        <g id="00-Logos/Payments/Maestro" fill-rule="nonzero">
            <rect id="Background" stroke="#D2D2D2" stroke-width="0.5" fill="#FFFFFF" x="0.25" y="0.25" width="59.5" height="37.5" rx="3.2"></rect>
            <g id="Maestro-Logo" transform="translate(11.000000, 4.000000)">
                <g id="Group">
                    <path d="M38.0700252,19.6957709 L38.0700252,18.6957709 L37.9546405,18.6957709 L37.8200252,19.3624375 L37.6854098,18.6957709 L37.5700252,18.6957709 L37.5700252,19.6957709 L37.6469482,19.6957709 L37.6469482,18.9457709 L37.7815636,19.6124375 L37.8777175,19.6124375 L38.0123328,18.9457709 L38.0123328,19.6957709 L38.0700252,19.6957709 Z M37.3007944,19.6957709 L37.3007944,18.8624375 L37.4546405,18.8624375 L37.4546405,18.6957709 L37.0700252,18.6957709 L37.0700252,18.8624375 L37.2238713,18.8624375 L37.2238713,19.6957709 L37.3007944,19.6957709 Z" id="Shape" fill="#00A2E5"></path>
                    <polygon id="Path" fill="#7375CF" points="24.4058745 21.1260297 14.0093563 21.1260297 14.0093563 2.52593833 24.4058745 2.52593833"></polygon>
                    <path d="M14.6819592,11.825984 C14.6819592,8.05621241 16.4499438,4.68829464 19.217224,2.52593833 C17.1994155,0.937658927 14.6435247,0 11.8762445,0 C5.32317106,0 0,5.30064332 0,11.825984 C0,18.3513247 5.32317106,23.651968 11.8762445,23.651968 C14.6435247,23.651968 17.1994155,22.7143091 19.217224,21.1260297 C16.4499438,18.9636734 14.6819592,15.5957556 14.6819592,11.825984" id="Path" fill="#EB001B"></path>
                    <path d="M38.4344481,11.825984 C38.4344481,18.3513247 33.111277,23.651968 26.5582036,23.651968 C23.7909234,23.651968 21.2350326,22.7143091 19.217224,21.1260297 C21.9845043,18.9636734 23.7524889,15.5957556 23.7524889,11.825984 C23.7524889,8.05621241 21.9845043,4.68829464 19.217224,2.52593833 C21.2350326,0.937658927 23.7909234,0 26.5582036,0 C33.111277,0 38.4344481,5.30064332 38.4344481,11.825984" id="Path" fill="#00A2E5"></path>
                </g>
                <g id="Group" transform="translate(6.898491, 25.622965)" fill="#000000">
                    <path d="M21.3550467,0.83456644 C21.4878045,0.83456644 21.696424,0.852323173 21.8291818,0.905593371 L21.6205624,1.50932228 C21.4688391,1.45605209 21.3360813,1.43829535 21.2033234,1.43829535 C20.7671191,1.43829535 20.5395343,1.70464635 20.5395343,2.18407813 L20.5395343,3.81769754 L19.8567797,3.81769754 L19.8567797,0.905593371 L20.5205688,0.905593371 L20.5205688,1.26072803 C20.7102229,0.994377035 20.9757386,0.83456644 21.3550467,0.83456644 M18.8516132,1.47380882 L17.7516196,1.47380882 L17.7516196,2.78780704 C17.7516196,3.07191477 17.8654121,3.26723883 18.2067894,3.26723883 C18.377478,3.26723883 18.6050629,3.21396863 18.8136823,3.10742823 L19.0033364,3.65788695 C18.7947169,3.79994081 18.4533396,3.88872447 18.1498931,3.88872447 C17.3533461,3.88872447 17.068865,3.48031962 17.068865,2.80556378 L17.068865,1.47380882 L16.4430066,1.47380882 L16.4430066,0.887836638 L17.068865,0.887836638 L17.068865,0 L17.7516196,0 L17.7516196,0.887836638 L18.8516132,0.887836638 L18.8516132,1.47380882 L18.8516132,1.47380882 Z M10.1844228,2.09529447 C10.2602844,1.66913288 10.5258001,1.38502516 11.0189006,1.38502516 C11.455105,1.38502516 11.7395861,1.63361941 11.8154477,2.09529447 L10.1844228,2.09529447 Z M12.5171677,2.36164546 C12.5171677,1.45605209 11.9102747,0.83456644 11.0378661,0.83456644 C10.1275266,0.83456644 9.48270279,1.45605209 9.48270279,2.36164546 C9.48270279,3.28499556 10.146492,3.88872447 11.0757969,3.88872447 C11.549932,3.88872447 11.9671709,3.78218408 12.346479,3.48031962 L12.0051017,3.01864457 C11.7395861,3.21396863 11.4171742,3.32050903 11.0947623,3.32050903 C10.6585579,3.32050903 10.2602844,3.12518497 10.1654574,2.61023972 L12.4792369,2.61023972 C12.4982023,2.52145605 12.5171677,2.45042912 12.5171677,2.36164546 M15.4947364,1.65137615 C15.3050823,1.54483575 14.9257742,1.40278189 14.5275007,1.40278189 C14.1481926,1.40278189 13.9395731,1.52707902 13.9395731,1.74015981 C13.9395731,1.93548387 14.167158,1.98875407 14.4706045,2.02426753 L14.7930164,2.059781 C15.475771,2.14856466 15.8740445,2.41491566 15.8740445,2.92986091 C15.8740445,3.48031962 15.3619785,3.88872447 14.4516391,3.88872447 C13.9395731,3.88872447 13.465438,3.76442735 13.1050953,3.51583309 L13.4275072,3.01864457 C13.655092,3.17845516 13.9964693,3.32050903 14.4706045,3.32050903 C14.9257742,3.32050903 15.1723245,3.1962119 15.1723245,2.96537437 C15.1723245,2.80556378 15.0016358,2.71678011 14.6223277,2.66350991 L14.2999158,2.62799645 C13.5981958,2.53921278 13.2188877,2.23734833 13.2188877,1.77567328 C13.2188877,1.18970109 13.7309536,0.83456644 14.5085353,0.83456644 C15.0016358,0.83456644 15.4568056,0.941106836 15.7792175,1.1364309 L15.4947364,1.65137615 Z M23.8395148,1.42053862 C23.706757,1.42053862 23.5739991,1.43829535 23.4602067,1.49156555 C23.3464143,1.54483575 23.2326218,1.59810595 23.1567602,1.68688961 C23.0808986,1.77567328 23.005037,1.86445694 22.9481408,1.98875407 C22.8912445,2.09529447 22.8722791,2.23734833 22.8722791,2.36164546 C22.8722791,2.50369932 22.8912445,2.62799645 22.9481408,2.73453685 C23.005037,2.84107724 23.0619332,2.94761764 23.1567602,3.0364013 C23.2515873,3.12518497 23.3464143,3.17845516 23.4602067,3.23172536 C23.5739991,3.28499556 23.706757,3.30275229 23.8395148,3.30275229 C23.9722727,3.30275229 24.1050305,3.28499556 24.2188229,3.23172536 C24.3326154,3.17845516 24.4464078,3.12518497 24.5222694,3.0364013 C24.6170965,2.94761764 24.6739927,2.85883397 24.7308889,2.73453685 C24.7877851,2.62799645 24.8067505,2.48594259 24.8067505,2.36164546 C24.8067505,2.2195916 24.7877851,2.09529447 24.7308889,1.98875407 C24.6739927,1.88221367 24.6170965,1.77567328 24.5222694,1.68688961 C24.4274424,1.59810595 24.3326154,1.54483575 24.2188229,1.49156555 C24.1050305,1.45605209 23.9722727,1.42053862 23.8395148,1.42053862 M23.8395148,0.83456644 C24.0860651,0.83456644 24.31365,0.870079905 24.503304,0.958863569 C24.7119235,1.0298905 24.8826121,1.1364309 25.0343354,1.27848476 C25.1860586,1.42053862 25.2998511,1.58034922 25.3946781,1.75791654 C25.4705397,1.9532406 25.5274359,2.14856466 25.5274359,2.36164546 C25.5274359,2.57472625 25.4895051,2.78780704 25.3946781,2.96537437 C25.3188165,3.16069843 25.1860586,3.32050903 25.0343354,3.44480616 C24.8826121,3.58686002 24.7119235,3.69340041 24.503304,3.76442735 C24.2946846,3.83545428 24.0670997,3.88872447 23.8395148,3.88872447 C23.5929646,3.88872447 23.3653797,3.85321101 23.1757256,3.76442735 C22.9671062,3.69340041 22.7964175,3.58686002 22.6446943,3.44480616 C22.492971,3.30275229 22.3791786,3.1429417 22.2843516,2.96537437 C22.2084899,2.77005031 22.1515937,2.57472625 22.1515937,2.36164546 C22.1515937,2.14856466 22.1895245,1.93548387 22.2843516,1.75791654 C22.3602132,1.56259248 22.492971,1.40278189 22.6446943,1.27848476 C22.7964175,1.1364309 22.9671062,1.0298905 23.1757256,0.958863569 C23.3653797,0.870079905 23.5929646,0.83456644 23.8395148,0.83456644 M6.23961844,2.36164546 C6.23961844,1.84670021 6.59996115,1.42053862 7.18788872,1.42053862 C7.75685089,1.42053862 8.11719359,1.82894347 8.11719359,2.36164546 C8.11719359,2.89434744 7.73788548,3.28499556 7.18788872,3.28499556 C6.59996115,3.28499556 6.23961844,2.87659071 6.23961844,2.36164546 M8.76201738,2.36164546 L8.76201738,0.905593371 L8.07926278,0.905593371 L8.07926278,1.26072803 C7.87064332,0.994377035 7.54823142,0.83456644 7.09306169,0.83456644 C6.22065303,0.83456644 5.53789843,1.47380882 5.53789843,2.36164546 C5.53789843,3.2494821 6.22065303,3.88872447 7.09306169,3.88872447 C7.52926602,3.88872447 7.85167791,3.72891388 8.07926278,3.46256289 L8.07926278,3.81769754 L8.76201738,3.81769754 L8.76201738,2.36164546 Z M4.94997086,3.81769754 L4.94997086,1.98875407 C4.94997086,1.29624149 4.47583572,0.83456644 3.7172195,0.83456644 C3.31894598,0.83456644 2.90170706,0.941106836 2.61722597,1.34951169 C2.40860651,1.0298905 2.06722921,0.83456644 1.59309407,0.83456644 C1.27068217,0.83456644 0.929304874,0.923350104 0.682754601,1.26072803 L0.682754601,0.905593371 L0,0.905593371 L0,3.81769754 L0.682754601,3.81769754 L0.682754601,2.20183486 C0.682754601,1.70464635 0.986201091,1.42053862 1.44137082,1.42053862 C1.89654056,1.42053862 2.12412543,1.68688961 2.12412543,2.18407813 L2.12412543,3.79994081 L2.80688003,3.79994081 L2.80688003,2.18407813 C2.80688003,1.68688961 3.12929192,1.40278189 3.56549625,1.40278189 C4.02066599,1.40278189 4.24825085,1.66913288 4.24825085,2.1663214 L4.24825085,3.78218408 L4.94997086,3.78218408 L4.94997086,3.81769754 Z" id="Shape"></path>
                    <path d="M26.4068481,3.74637467 L26.4068481,3.87540693 L26.5280602,3.87540693 C26.5583632,3.87540693 26.5886663,3.87540693 26.5886663,3.84314886 C26.6189693,3.84314886 26.6189693,3.8108908 26.6189693,3.77863273 C26.6189693,3.74637467 26.6189693,3.74637467 26.5886663,3.74637467 C26.5886663,3.74637467 26.5583632,3.7141166 26.5280602,3.7141166 L26.4068481,3.7141166 L26.4068481,3.74637467 Z M26.5280602,3.68185854 C26.5886663,3.68185854 26.6189693,3.68185854 26.6492723,3.7141166 C26.6795754,3.74637467 26.7098784,3.77863273 26.7098784,3.84314886 C26.7098784,3.87540693 26.7098784,3.90766499 26.6795754,3.93992305 C26.6492723,3.97218112 26.6189693,3.97218112 26.5583632,3.97218112 L26.7098784,4.16572951 L26.5886663,4.16572951 L26.4371511,3.97218112 L26.4068481,3.97218112 L26.4068481,4.16572951 L26.315939,4.16572951 L26.315939,3.68185854 L26.5280602,3.68185854 Z M26.4977572,4.32701983 C26.5583632,4.32701983 26.5886663,4.32701983 26.6492723,4.29476176 C26.7098784,4.2625037 26.7401814,4.23024563 26.7704844,4.19798757 C26.8007875,4.16572951 26.8310905,4.13347144 26.8613935,4.06895531 C26.8916966,4.00443918 26.8916966,3.97218112 26.8916966,3.90766499 C26.8916966,3.84314886 26.8916966,3.8108908 26.8613935,3.74637467 C26.8310905,3.68185854 26.8007875,3.64960047 26.7704844,3.61734241 C26.7401814,3.58508434 26.7098784,3.55282628 26.6492723,3.52056822 C26.6189693,3.48831015 26.5583632,3.48831015 26.4977572,3.48831015 C26.4371511,3.48831015 26.4068481,3.48831015 26.346242,3.52056822 C26.285636,3.55282628 26.2553329,3.58508434 26.2250299,3.61734241 C26.1947269,3.64960047 26.1644238,3.7141166 26.1341208,3.74637467 C26.1038178,3.8108908 26.1038178,3.84314886 26.1038178,3.90766499 C26.1038178,3.97218112 26.1038178,4.00443918 26.1341208,4.06895531 C26.1644238,4.13347144 26.1947269,4.16572951 26.2250299,4.19798757 C26.2553329,4.23024563 26.315939,4.2625037 26.346242,4.29476176 C26.4068481,4.32701983 26.4371511,4.32701983 26.4977572,4.32701983 M26.4977572,3.39153596 C26.5583632,3.39153596 26.6189693,3.39153596 26.6795754,3.42379402 C26.7401814,3.45605209 26.8007875,3.48831015 26.8310905,3.52056822 C26.8613935,3.55282628 26.9219996,3.61734241 26.9523026,3.68185854 C26.9826057,3.74637467 26.9826057,3.8108908 26.9826057,3.87540693 C26.9826057,3.93992305 26.9826057,4.00443918 26.9523026,4.06895531 C26.9219996,4.13347144 26.8916966,4.19798757 26.8310905,4.23024563 C26.7704844,4.2625037 26.7401814,4.32701983 26.6795754,4.35927789 C26.6189693,4.39153596 26.5583632,4.39153596 26.4977572,4.39153596 C26.4371511,4.39153596 26.346242,4.39153596 26.285636,4.35927789 C26.2250299,4.32701983 26.1644238,4.29476176 26.1341208,4.23024563 C26.1038178,4.19798757 26.0432117,4.13347144 26.0129087,4.06895531 C25.9826057,4.00443918 25.9826057,3.93992305 25.9826057,3.87540693 C25.9826057,3.8108908 25.9826057,3.74637467 26.0129087,3.68185854 C26.0432117,3.61734241 26.0735147,3.55282628 26.1341208,3.52056822 C26.1644238,3.48831015 26.2250299,3.42379402 26.285636,3.42379402 C26.346242,3.39153596 26.4371511,3.39153596 26.4977572,3.39153596" id="Shape"></path>
                </g>
            </g>
        </g>
    </g>
</svg>