<?xml version="1.0" encoding="UTF-8"?>
<svg width="60px" height="38px" viewBox="0 0 60 38" version="1.1" xmlns="http://www.w3.org/2000/svg" xmlns:xlink="http://www.w3.org/1999/xlink">
    <title>556E9691-2965-4617-A285-F38B5DC3DC3B@2x</title>
    <g id="Symbols" stroke="none" stroke-width="1" fill="none" fill-rule="evenodd">
        <g id="00-Logos/Payments/Mastercard" fill-rule="nonzero">
            <rect id="Background" stroke="#D2D2D2" stroke-width="0.5" fill="#FFFFFF" x="0.25" y="0.25" width="59.5" height="37.5" rx="3.2"></rect>
            <g id="Mastercard-Logo" transform="translate(11.000000, 4.000000)">
                <path d="M7.06855484,29.9342784 L7.06855484,27.943299 C7.06855484,27.181701 6.60018014,26.6829897 5.79613691,26.6829897 C5.39411529,26.6829897 4.95696557,26.814433 4.65642514,27.2474227 C4.42223779,26.8840206 4.08656926,26.6829897 3.58306645,26.6829897 C3.24739792,26.6829897 2.91172938,26.7835052 2.64631705,27.1469072 L2.64631705,26.7487113 L1.943755,26.7487113 L1.943755,29.9342784 L2.64631705,29.9342784 L2.64631705,28.1752577 C2.64631705,27.6108247 2.94685749,27.3440722 3.41523219,27.3440722 C3.88360689,27.3440722 4.11779424,27.6417526 4.11779424,28.1752577 L4.11779424,29.9342784 L4.82035629,29.9342784 L4.82035629,28.1752577 C4.82035629,27.6108247 5.15602482,27.3440722 5.58927142,27.3440722 C6.05764612,27.3440722 6.29183347,27.6417526 6.29183347,28.1752577 L6.29183347,29.9342784 L7.06855484,29.9342784 Z M17.4898919,26.7487113 L16.3501801,26.7487113 L16.3501801,25.7860825 L15.6476181,25.7860825 L15.6476181,26.7487113 L15.0114091,26.7487113 L15.0114091,27.378866 L15.6476181,27.378866 L15.6476181,28.8402062 C15.6476181,29.5708763 15.9481585,30 16.7522018,30 C17.0527422,30 17.3884107,29.8994845 17.6225981,29.7680412 L17.4196357,29.1688144 C17.2166733,29.3002577 16.982486,29.3350515 16.8146517,29.3350515 C16.4789832,29.3350515 16.346277,29.1340206 16.346277,28.8054124 L16.346277,27.378866 L17.4859888,27.378866 L17.4859888,26.7487113 L17.4898919,26.7487113 Z M23.4538631,26.6791237 C23.0518415,26.6791237 22.782526,26.8801546 22.6146918,27.1430412 L22.6146918,26.7448454 L21.9121297,26.7448454 L21.9121297,29.9304124 L22.6146918,29.9304124 L22.6146918,28.1365979 C22.6146918,27.6069588 22.8488791,27.3054124 23.2860288,27.3054124 C23.418735,27.3054124 23.5865693,27.3402062 23.7231785,27.371134 L23.9261409,26.7061856 C23.7856285,26.6791237 23.5865693,26.6791237 23.4538631,26.6791237 L23.4538631,26.6791237 Z M14.4415532,27.0115979 C14.1058847,26.7796392 13.63751,26.6791237 13.1340072,26.6791237 C12.329964,26.6791237 11.7952362,27.0773196 11.7952362,27.7074742 C11.7952362,28.2371134 12.1972578,28.5386598 12.8998199,28.6353093 L13.2354884,28.6701031 C13.6023819,28.7358247 13.8053443,28.8363402 13.8053443,29.0025773 C13.8053443,29.2345361 13.5360288,29.4007732 13.0676541,29.4007732 C12.5992794,29.4007732 12.2284828,29.2345361 11.9942954,29.068299 L11.6586269,29.5979381 C12.0255204,29.8646907 12.5290232,29.996134 13.032526,29.996134 C13.9692754,29.996134 14.5079063,29.5631443 14.5079063,28.9677835 C14.5079063,28.4033505 14.0707566,28.1056701 13.4033227,28.0051546 L13.0676541,27.9703608 C12.7671137,27.935567 12.5329263,27.8698454 12.5329263,27.6726804 C12.5329263,27.4407216 12.7671137,27.3092784 13.1379103,27.3092784 C13.5399319,27.3092784 13.9419536,27.4755155 14.1449159,27.5760309 L14.4415532,27.0115979 L14.4415532,27.0115979 Z M33.1336069,26.6791237 C32.7315853,26.6791237 32.4622698,26.8801546 32.2944355,27.1430412 L32.2944355,26.7448454 L31.5918735,26.7448454 L31.5918735,29.9304124 L32.2944355,29.9304124 L32.2944355,28.1365979 C32.2944355,27.6069588 32.5286229,27.3054124 32.9657726,27.3054124 C33.0984788,27.3054124 33.2663131,27.3402062 33.4029223,27.371134 L33.6058847,26.7139175 C33.4692754,26.6791237 33.2702162,26.6791237 33.1336069,26.6791237 L33.1336069,26.6791237 Z M24.1564251,28.3414948 C24.1564251,29.3041237 24.8277622,30 25.8659928,30 C26.3343675,30 26.670036,29.8994845 27.0057046,29.6365979 L26.670036,29.0721649 C26.4007206,29.2731959 26.1353082,29.3698454 25.8308647,29.3698454 C25.2610088,29.3698454 24.8589872,28.9716495 24.8589872,28.3414948 C24.8589872,27.742268 25.2610088,27.3440722 25.8308647,27.3131443 C26.1314051,27.3131443 26.4007206,27.4136598 26.670036,27.6108247 L27.0057046,27.0463918 C26.670036,26.7796392 26.3343675,26.6829738 25.8659928,26.6829738 C24.8277622,26.6791237 24.1564251,27.378866 24.1564251,28.3414948 L24.1564251,28.3414948 L24.1564251,28.3414948 Z M30.6551241,28.3414948 L30.6551241,26.7487113 L29.952562,26.7487113 L29.952562,27.1469072 C29.7183747,26.8492268 29.3827062,26.6829897 28.9455564,26.6829897 C28.040032,26.6829897 27.33747,27.378866 27.33747,28.3414948 C27.33747,29.3041237 28.040032,30 28.9455564,30 C29.4139311,30 29.7495997,29.8337629 29.952562,29.5360825 L29.952562,29.9342784 L30.6551241,29.9342784 L30.6551241,28.3414948 L30.6551241,28.3414948 Z M28.0751601,28.3414948 C28.0751601,27.7770619 28.4420536,27.3131443 29.0470376,27.3131443 C29.6168935,27.3131443 30.0189151,27.746134 30.0189151,28.3414948 C30.0189151,28.9059278 29.6168935,29.3698454 29.0470376,29.3698454 C28.4459568,29.3350515 28.0751601,28.9020619 28.0751601,28.3414948 L28.0751601,28.3414948 Z M19.6678343,26.6791237 C18.7310849,26.6791237 18.0597478,27.3440722 18.0597478,28.3376289 C18.0597478,29.3350515 18.7310849,29.996134 19.7029624,29.996134 C20.1713371,29.996134 20.6397118,29.8646907 21.0105084,29.5631443 L20.6748399,29.064433 C20.4055244,29.2654639 20.0698559,29.3969072 19.7380905,29.3969072 C19.3009408,29.3969072 18.8676942,29.1958763 18.766213,28.6353093 L21.1432146,28.6353093 C21.1432146,28.5347938 21.1432146,28.4690722 21.1432146,28.3685567 C21.1744396,27.3440722 20.5694556,26.6791237 19.6678343,26.6791237 L19.6678343,26.6791237 L19.6678343,26.6791237 Z M19.6678343,27.2783505 C20.104984,27.2783505 20.4055244,27.5451031 20.4718775,28.0399485 L18.797438,28.0399485 C18.863791,27.6108247 19.1643315,27.2783505 19.6678343,27.2783505 L19.6678343,27.2783505 Z M37.1225981,28.3414948 L37.1225981,25.4884021 L36.420036,25.4884021 L36.420036,27.1469072 C36.1858487,26.8492268 35.8501801,26.6829897 35.4130304,26.6829897 C34.507506,26.6829897 33.804944,27.378866 33.804944,28.3414948 C33.804944,29.3041237 34.507506,30 35.4130304,30 C35.8814051,30 36.2170737,29.8337629 36.420036,29.5360825 L36.420036,29.9342784 L37.1225981,29.9342784 L37.1225981,28.3414948 L37.1225981,28.3414948 Z M34.5426341,28.3414948 C34.5426341,27.7770619 34.9095276,27.3131443 35.5145116,27.3131443 C36.0843675,27.3131443 36.4863891,27.746134 36.4863891,28.3414948 C36.4863891,28.9059278 36.0843675,29.3698454 35.5145116,29.3698454 C34.9095276,29.3350515 34.5426341,28.9020619 34.5426341,28.3414948 L34.5426341,28.3414948 Z M11.0224179,28.3414948 L11.0224179,26.7487113 L10.3198559,26.7487113 L10.3198559,27.1469072 C10.0856685,26.8492268 9.75,26.6829897 9.31285028,26.6829897 C8.40732586,26.6829897 7.70476381,27.378866 7.70476381,28.3414948 C7.70476381,29.3041237 8.40732586,30 9.31285028,30 C9.78122498,30 10.1168935,29.8337629 10.3198559,29.5360825 L10.3198559,29.9342784 L11.0224179,29.9342784 L11.0224179,28.3414948 L11.0224179,28.3414948 Z M8.41122898,28.3414948 C8.41122898,27.7770619 8.7781225,27.3131443 9.38310649,27.3131443 C9.95296237,27.3131443 10.354984,27.746134 10.354984,28.3414948 C10.354984,28.9059278 9.95296237,29.3698454 9.38310649,29.3698454 C8.7781225,29.3350515 8.41122898,28.9020619 8.41122898,28.3414948 Z" id="XMLID_1775_" fill="#000000"></path>
                <g id="Group">
                    <rect id="rect19" fill="#FF5A00" x="14.2073659" y="2.55541237" width="10.5540432" height="18.7809278"></rect>
                    <path d="M14.9099279,11.9458763 C14.9099279,8.13015464 16.7209768,4.7435567 19.5,2.55541237 C17.4547638,0.962628866 14.8747998,0 12.0606485,0 C5.39411529,0 0,5.34278351 0,11.9458763 C0,18.5489691 5.39411529,23.8917526 12.0606485,23.8917526 C14.8747998,23.8917526 17.4547638,22.9291237 19.5,21.3363402 C16.7170737,19.1791237 14.9099279,15.7615979 14.9099279,11.9458763 Z" id="XMLID_330_" fill="#EB001B"></path>
                    <path d="M39,11.9458763 C39,18.5489691 33.6058847,23.8917526 26.9393515,23.8917526 C24.1252002,23.8917526 21.5452362,22.9291237 19.5,21.3363402 C22.3141513,19.1443299 24.0900721,15.7615979 24.0900721,11.9458763 C24.0900721,8.13015464 22.2790232,4.7435567 19.5,2.55541237 C21.5413331,0.962628866 24.121297,0 26.9354484,0 C33.6058847,0 39,5.37757732 39,11.9458763 Z" id="path22" fill="#F79E1B"></path>
                </g>
            </g>
        </g>
    </g>
</svg>