<?xml version="1.0" encoding="UTF-8"?>
<svg width="60px" height="38px" viewBox="0 0 60 38" version="1.1" xmlns="http://www.w3.org/2000/svg" xmlns:xlink="http://www.w3.org/1999/xlink">
    <title>0ADFE22B-3FC7-4E54-B6DE-DD987D835AE8@2x</title>
    <g id="Symbols" stroke="none" stroke-width="1" fill="none" fill-rule="evenodd">
        <g id="00-Logos/Payments/PayPal" fill-rule="nonzero">
            <rect id="Background" stroke="#D2D2D2" stroke-width="0.5" fill="#FFFFFF" x="0.25" y="0.25" width="59.5" height="37.5" rx="3.2"></rect>
            <g id="PayPal-Logo" transform="translate(5.000000, 12.000000)">
                <path d="M40.6912922,3.49970994 C41.5964762,3.49970994 42.5028943,3.69972911 42.9097424,4.29835666 L43.0408928,4.49140464 L43.1235667,3.95891393 C43.1485982,3.79750433 43.2855656,3.67899434 43.4465068,3.67899434 L45.3245655,3.67899434 C45.5255216,3.67899434 45.678883,3.86078119 45.6475056,4.06205159 L44.6323244,10.581354 C44.5903706,10.8500125 44.3620913,11.0477079 44.0939735,11.0477079 L42.4027686,11.0477079 C42.2016363,11.0477079 42.0482752,10.8655635 42.0798286,10.6642931 L42.1635604,10.1350198 C42.1635604,10.1350198 41.235989,11.2244898 39.5634697,11.2244898 C38.5890087,11.2244898 37.7712582,10.9399227 37.1980043,10.2562111 C36.5743353,9.51208256 36.3194381,8.44602864 36.4988886,7.33046144 C36.8438631,5.0941434 38.6165081,3.49970994 40.6912922,3.49970994 Z M33.6015944,0 C34.9138028,0 35.9023661,0.351418839 36.4601074,1.01600444 C36.9676099,1.62053067 37.1359548,2.48406297 36.9605587,3.58300657 C36.5708095,6.09566927 35.079856,7.36352984 32.4963355,7.36352984 L31.2551668,7.36352984 C30.987049,7.36352984 30.7587697,7.56140404 30.7169921,7.83006251 L30.2671323,10.721135 C30.2380465,10.9091781 30.078163,11.0477079 29.8904278,11.0477079 L27.8780457,11.0477079 C27.6770896,11.0477079 27.5237283,10.8657423 27.5551057,10.6646506 L29.1410727,0.466532636 C29.1828504,0.1978742 29.4111296,0 29.6792474,0 Z M41.1367449,5.52010023 C40.0665653,5.52010023 39.2010437,6.27423865 39.0319938,7.35262621 C38.9438549,7.88172072 39.0483874,8.35683329 39.3262006,8.69037734 C39.6066577,9.02678136 40.0425916,9.204457 40.5874647,9.204457 C41.6740383,9.204457 42.5258104,8.47391333 42.7071997,7.38569461 C42.7895211,6.85928135 42.6765276,6.3809513 42.388843,6.03900608 C42.1030972,5.69956335 41.6699841,5.52010023 41.1367449,5.52010023 Z M32.3181561,2.20724003 L31.8709036,2.20700335 C31.7099622,2.20700335 31.5729947,2.32569211 31.5479632,2.48674419 L31.1328303,5.15223655 L31.8547165,5.15213328 C32.8527425,5.14975797 33.8488525,5.09275066 34.0542744,3.7245751 C34.132189,3.22336531 34.069787,2.86068531 33.8635425,2.61597909 C33.5187439,2.20700335 32.8499477,2.20700335 32.1421943,2.20700335 Z M47.5382562,0.280098324 L45.9284917,10.6646506 C45.8972906,10.865921 46.0506519,11.0477079 46.2514318,11.0477079 L47.8705389,11.0477079 C48.1386569,11.0477079 48.3669359,10.8498337 48.4087136,10.581354 L49.9959147,0.383236013 C50.0272922,0.181965613 49.8739308,0 49.6729747,0 L47.8611962,0 C47.7002551,0 47.5632877,0.118867516 47.5382562,0.280098324" id="Combined-Shape" fill="#2790C3"></path>
                <path d="M12.8818028,3.40734452 C13.7691728,3.40734452 14.6577526,3.60208472 15.0564212,4.18491311 L15.1851633,4.37286611 L15.2662102,3.85442905 C15.2907491,3.69727943 15.425021,3.58189718 15.5827948,3.58189718 L17.4238934,3.58189718 C17.6208947,3.58189718 17.7712379,3.75888626 17.740478,3.95484467 L16.7451028,10.3020876 C16.7041474,10.5636556 16.4803606,10.7561334 16.2175194,10.7561334 L14.5594246,10.7561334 C14.3624233,10.7561334 14.2120804,10.5787962 14.24284,10.3828378 L14.3250968,9.86753327 C14.3250968,9.86753327 13.41578,10.9282496 11.7761759,10.9282496 C10.8208922,10.9282496 10.0190623,10.6511929 9.45726283,9.985526 C8.84569477,9.26103674 8.59581402,8.22311844 8.77190564,7.13699364 C9.1100911,4.9596972 10.8476777,3.40734452 12.8818028,3.40734452 Z M5.93163009,0 C7.21784148,0 8.18694995,0.342144085 8.73388765,0.989189733 C9.23140258,1.57776113 9.39643444,2.41850281 9.22449009,3.48844275 C8.84241118,5.93479049 7.3806268,7.16918929 4.84812272,7.16918929 L3.63138023,7.16918929 C3.36853897,7.16918929 3.14457956,7.36184114 3.1037968,7.62340908 L2.68421852,10.3020876 C2.64326297,10.5634815 2.41930356,10.7561334 2.15646229,10.7561334 L0.320548038,10.7561334 C0.123719514,10.7561334 -0.0266236065,10.5789703 0.003963436,10.3831859 L1.55889155,0.454219763 C1.5998471,0.192651843 1.82363372,0 2.08647499,0 Z M13.3183163,5.37441204 C12.2693705,5.37441204 11.4208824,6.10864701 11.2549866,7.15857343 C11.1687551,7.67370392 11.2712304,8.13627717 11.5435762,8.46101822 C11.8183412,8.78854376 12.2458687,8.96153013 12.7798459,8.96153013 C13.8450357,8.96153013 14.6802177,8.2502672 14.8580373,7.19076908 C14.9387389,6.67824908 14.8279688,6.21254327 14.5459458,5.87962277 C14.2656507,5.54913872 13.841234,5.37441204 13.3183163,5.37441204 Z M4.67331673,2.14898587 L4.23482644,2.14875544 C4.07722535,2.14875544 3.94295341,2.26431173 3.91824183,2.42111327 L3.51145134,5.01625713 L4.21911024,5.01615659 C5.19734288,5.01384397 6.17384958,4.95834121 6.37522873,3.62627496 C6.45178275,3.13829326 6.39060866,2.78518522 6.18825026,2.54693737 C5.85041024,2.14875544 5.19477596,2.14875544 4.50077825,2.14875544 Z M27.2298943,3.58189718 L25.3792914,3.58189718 C25.2023358,3.58189718 25.0367855,3.67030469 24.9374208,3.8177086 L22.3846982,7.6040917 L21.302746,3.96563458 C21.2351782,3.73800259 21.0271171,3.58189718 20.791061,3.58189718 L18.9719092,3.58189718 C18.75227,3.58189718 18.5976067,3.79943538 18.6684581,4.00879415 L20.7062122,10.0323402 L18.7895965,12.7559186 C18.6390805,12.9696282 18.7909791,13.2653061 19.0510554,13.2653061 L20.8999302,13.2653061 C21.0751578,13.2653061 21.2391526,13.1788129 21.3390358,13.0336714 L27.4934269,4.08867418 C27.6406593,3.87461659 27.4885882,3.58189718 27.2298943,3.58189718" id="Combined-Shape" fill="#27346A"></path>
            </g>
        </g>
    </g>
</svg>