<?xml version="1.0" encoding="UTF-8"?>
<svg width="40px" height="24.9064123px" viewBox="0 0 40 24.9064123" version="1.1" xmlns="http://www.w3.org/2000/svg" xmlns:xlink="http://www.w3.org/1999/xlink">
    <title>Visa ELectron</title>
    <g id="UXDEV-408---Payment-in-footer" stroke="none" stroke-width="1" fill="none" fill-rule="evenodd">
        <g id="Tech-specs" transform="translate(-843.265385, -230.000000)">
            <g id="Censimento-Componenti" transform="translate(-35.000000, 40.000000)">
                <g id="Loghi" transform="translate(657.530769, 133.000000)">
                    <g id="Visa-ELectron" transform="translate(220.734615, 57.000000)">
                        <rect id="Background" stroke="#D2D2D2" stroke-width="0.342105263" fill="#FFFFFF" fill-rule="nonzero" x="0.171052632" y="0.171052632" width="39.6578947" height="24.564307" rx="2.18947368"></rect>
                        <path d="M19.8383555,6.73859342 L17.6111335,16.838208 L14.9177272,16.838208 L17.1447949,6.73859342 L19.8383555,6.73859342 Z M31.1695192,13.2599015 L32.5879786,9.46723182 L33.4027595,13.2599015 L31.1695192,13.2599015 Z M34.1763383,16.838208 L36.6666667,16.838208 L34.4909857,6.73859342 L32.1932419,6.73859342 C31.6748993,6.73859342 31.2394237,7.03019906 31.0460675,7.47898433 L27.0045693,16.838208 L29.8331551,16.838208 L30.3940885,15.329583 L33.849963,15.329583 L34.1763383,16.838208 Z M27.1448412,13.5407291 C27.1562605,10.8755613 23.346234,10.7278125 23.371233,9.53698963 C23.3803375,9.1750274 23.735724,8.78956307 24.5139323,8.69106383 C24.8992557,8.64271238 25.9640262,8.6040911 27.1701488,9.14329208 L27.6420427,7.00026009 C26.9939215,6.77302325 26.16016,6.55431902 25.1227032,6.55431902 C22.4600055,6.55431902 20.5869354,7.92612296 20.5719669,9.8923653 C20.5545294,11.3466511 21.9098741,12.1572489 22.9291218,12.6415119 C23.9789237,13.1362535 24.3310695,13.4542054 24.3262858,13.8962544 C24.3187244,14.5739232 23.4877405,14.8739117 22.7152418,14.8849892 C21.3605143,14.9057967 20.5752075,14.5299129 19.9486904,14.2468399 L19.4598219,16.4606775 C20.0900425,16.7409064 21.2515682,16.9843102 22.4546045,16.9965852 C25.2851965,16.9965852 27.1365082,15.6404992 27.1448412,13.5407291 L27.1448412,13.5407291 Z M15.9892875,6.73859342 L11.6252718,16.838208 L8.77785956,16.838208 L6.63041818,8.77788686 C6.50017669,8.28254648 6.38706412,8.10021811 5.99078433,7.89094466 C5.34312614,7.54964032 4.27357193,7.23049082 3.33333333,7.03169601 L3.39691093,6.73859342 L7.98067056,6.73859342 C8.56397959,6.73859342 9.08942066,7.11537545 9.22274843,7.76774577 L10.3575777,13.6125826 L13.1591585,6.73859342 L15.9892875,6.73859342 Z M21.4685499,21.5789403 L21.4685499,18.8483559 L23.2277359,18.8483559 L23.2277359,19.1395124 L21.8277942,19.1395124 L21.8277942,20.012533 L22.9425626,20.012533 L22.9425626,20.2999472 L21.8277942,20.2999472 L21.8277942,21.2879334 L23.2277359,21.2879334 L23.2277359,21.5789403 L21.4685499,21.5789403 Z M23.7907217,21.5789403 L24.1203376,21.5789403 L24.1203376,18.7405756 L23.7907217,18.7405756 L23.7907217,21.5789403 Z M25.6092416,19.7430074 C25.4240641,19.7430074 25.2746876,19.7982448 25.1611121,19.9082705 C25.0473823,20.018446 24.9782494,20.1717335 24.9537133,20.3681332 L26.2166237,20.3681332 L26.2166237,20.3322064 C26.2166237,20.2124505 26.1981059,20.1088617 26.1610704,20.0214399 C26.124035,19.934018 26.0616919,19.8657572 25.9740412,19.8166573 C25.8863905,19.767707 25.7647907,19.7430074 25.6092416,19.7430074 M25.6907197,21.3704902 C25.8782119,21.3704902 26.030829,21.348485 26.148108,21.3041753 C26.2653871,21.2598657 26.3709382,21.2005865 26.4647615,21.1263378 L26.4721686,21.1263378 L26.4425402,21.417195 C26.3808144,21.4674925 26.2845221,21.5155445 26.1536634,21.5609021 C26.0228046,21.6064093 25.8598484,21.6291629 25.6647948,21.6291629 C25.4523037,21.6291629 25.2666633,21.5836557 25.1074106,21.4926412 C24.948158,21.4016267 24.8240891,21.2760327 24.7352039,21.1154101 C24.6463187,20.9549372 24.6017218,20.7718603 24.6017218,20.5657305 C24.6017218,20.3597503 24.6457015,20.1766735 24.7333522,20.0160508 C24.8208485,19.8555779 24.9407509,19.7292354 25.0925965,19.6370234 C25.244442,19.5448113 25.4152682,19.4987053 25.605538,19.4987053 C25.8251277,19.4987053 26.0036696,19.5364284 26.1407009,19.6118747 C26.2777323,19.6873209 26.3777281,19.7928558 26.4406884,19.9280303 C26.5036488,20.0633544 26.5351289,20.2208334 26.5351289,20.4004673 C26.5351289,20.4244185 26.5337401,20.4531599 26.5314254,20.4866916 C26.5289564,20.5203729 26.5252528,20.5501622 26.5203147,20.5766582 L24.9388992,20.5766582 C24.9388992,20.5790533 24.9393621,20.5814484 24.9407509,20.5836939 C24.9419854,20.586089 24.9413682,20.5886338 24.9388992,20.5908792 C24.9436829,20.8329358 25.0129701,21.0233477 25.1462979,21.1621149 C25.2796257,21.3011814 25.4610996,21.3704902 25.6907197,21.3704902 M26.8831237,20.5657754 C26.8831237,20.3597952 26.9263318,20.1765687 27.0127479,20.0160958 C27.0991641,19.8556228 27.2213812,19.7292804 27.3793993,19.6370683 C27.5374174,19.5448562 27.7225949,19.4987502 27.935086,19.4987502 C28.1202635,19.4987502 28.2676339,19.5191087 28.3776602,19.5598257 C28.4873778,19.6005427 28.5682387,19.6436549 28.6200884,19.6891621 L28.6535746,20.0268738 L28.6460132,20.0268738 C28.554659,19.9430446 28.4540459,19.8783765 28.3441739,19.8328692 C28.234302,19.787362 28.1040605,19.7646083 27.9536038,19.7646083 C27.8102456,19.7646083 27.6837076,19.7963437 27.57399,19.8598143 C27.4639637,19.9232849 27.3775475,20.0148982 27.3145872,20.1346541 C27.2517812,20.25441 27.220301,20.3981171 27.220301,20.5657754 C27.220301,20.8172628 27.2898969,21.0124649 27.4293972,21.1513818 C27.5688976,21.2902986 27.7497543,21.3597571 27.9721215,21.3597571 C28.0904808,21.3597571 28.1906309,21.3495778 28.2719547,21.3292193 C28.3535871,21.3090105 28.425652,21.2802691 28.4887667,21.242995 C28.551727,21.2058707 28.6139158,21.1633574 28.6757959,21.115455 L28.6869066,21.115455 L28.6535746,21.4064619 C28.5941635,21.4616993 28.5046611,21.5124458 28.3850673,21.5591506 C28.2651649,21.6058554 28.1153254,21.6292079 27.935086,21.6292079 C27.7225949,21.6292079 27.5374174,21.5837006 27.3793993,21.4926861 C27.2213812,21.4016716 27.0991641,21.2759279 27.0127479,21.115455 C26.9263318,20.9549821 26.8831237,20.7719052 26.8831237,20.5657754 M29.6052634,21.0328534 C29.6052634,21.1621897 29.6338116,21.2490128 29.6905993,21.2933225 C29.7472328,21.3376322 29.8213037,21.359787 29.912658,21.359787 C29.9966051,21.359787 30.0694416,21.3526016 30.1311674,21.3382309 C30.1928932,21.3238602 30.2435084,21.3070944 30.2831672,21.2879334 L30.2941235,21.2879334 L30.2646495,21.5573842 C30.2274597,21.5765452 30.1719064,21.593311 30.0978354,21.6076817 C30.0237644,21.6220524 29.9484589,21.6292378 29.8720732,21.6292378 C29.6867414,21.6292378 29.5410685,21.5867244 29.4349001,21.5016977 C29.3287317,21.4166711 29.2756475,21.2771554 29.2756475,21.0831508 L29.2756475,19.8149358 L28.8904783,19.8149358 L28.9349209,19.6028181 L29.2756475,19.5561133 L29.2756475,19.121549 L29.6052634,19.0748442 L29.6052634,19.5490776 L30.2459774,19.5490776 L30.2053927,19.8149358 L29.6052634,19.8149358 L29.6052634,21.0328534 Z M31.5164646,19.8292616 C31.3533541,19.8292616 31.2261989,19.8789603 31.134999,19.9783577 C31.0434905,20.0777551 30.9979677,20.2280487 30.9979677,20.4292387 L30.9979677,21.5788954 L30.6683518,21.5788954 L30.6683518,19.5490327 L30.9831535,19.5490327 L30.9831535,19.9729687 L31.0016712,19.9729687 C31.0485829,19.7957299 31.1286721,19.6723813 31.2424019,19.6029229 C31.3559775,19.5334645 31.4794291,19.4987353 31.6127569,19.4987353 C31.6473233,19.4987353 31.6811182,19.5005316 31.7146045,19.5041243 C31.7479364,19.5077169 31.7720095,19.5119084 31.7868237,19.5166986 L31.7460847,19.8651883 L31.734974,19.8651883 C31.7150674,19.858003 31.6855933,19.8502188 31.6460888,19.8418359 C31.6065843,19.833453 31.5633762,19.8292616 31.5164646,19.8292616 M33.0349353,21.3633946 C33.2670244,21.3633946 33.4417084,21.2921399 33.5589875,21.1496303 C33.6761123,21.0071208 33.7349061,20.8125175 33.7349061,20.5658203 C33.7349061,20.316728 33.6761123,20.1209271 33.5589875,19.9784176 C33.4417084,19.835908 33.2670244,19.7646533 33.0349353,19.7646533 C32.8028462,19.7646533 32.6273905,19.835908 32.5090313,19.9784176 C32.3905177,20.1209271 32.3311066,20.316728 32.3311066,20.5658203 C32.3311066,20.8125175 32.3905177,21.0071208 32.5090313,21.1496303 C32.6273905,21.2921399 32.8028462,21.3633946 33.0349353,21.3633946 M33.0349353,19.4987951 C33.239865,19.4987951 33.4207217,19.5449012 33.5775053,19.6369635 C33.7341345,19.7293253 33.8571232,19.8556677 33.9460084,20.0161407 C34.0348936,20.1766136 34.0793362,20.3598401 34.0793362,20.5658203 C34.0793362,20.7718004 34.0348936,20.955027 33.9460084,21.1154999 C33.8571232,21.2759728 33.7341345,21.4017165 33.5775053,21.492731 C33.4207217,21.5837455 33.239865,21.6292528 33.0349353,21.6292528 C32.8323203,21.6292528 32.6520809,21.5837455 32.4942171,21.492731 C32.336199,21.4017165 32.2127473,21.2759728 32.1238621,21.1154999 C32.0348226,20.955027 31.99038,20.7718004 31.99038,20.5658203 C31.99038,20.3598401 32.0348226,20.1766136 32.1238621,20.0161407 C32.2127473,19.8556677 32.336199,19.7293253 32.4942171,19.6369635 C32.6520809,19.5449012 32.8323203,19.4987951 33.0349353,19.4987951 M35.6422495,19.4987203 C35.8694005,19.4987203 36.0470166,19.5550056 36.1754063,19.6675761 C36.303796,19.7801467 36.3679908,19.9561879 36.3679908,20.1956997 L36.3679908,21.5788804 L36.0422328,21.5788804 L36.0422328,20.2855166 C36.0422328,20.1154632 36.0045801,19.9879232 35.9291202,19.9028965 C35.8538147,19.8178698 35.7174007,19.7753564 35.5200323,19.7753564 C35.4038335,19.7753564 35.2982823,19.7982598 35.2032246,19.8436173 C35.1081668,19.8891246 35.0330156,19.9537927 34.977308,20.0376219 C34.9219091,20.121451 34.8939782,20.2208484 34.8939782,20.3358141 L34.8939782,21.5788804 L34.5643623,21.5788804 L34.5643623,19.5490178 L34.8793183,19.5490178 L34.8793183,19.980139 L34.897836,19.980139 C34.9373406,19.8651734 34.9970603,19.7723625 35.0774582,19.7017066 C35.1575474,19.6310506 35.2476671,19.5795555 35.3478173,19.5472214 C35.4476588,19.5148873 35.5459572,19.4987203 35.6422495,19.4987203" id="Visa-Logo" fill="#1234CA"></path>
                    </g>
                </g>
            </g>
        </g>
    </g>
</svg>