<?xml version="1.0" encoding="UTF-8"?>
<svg width="40px" height="24.9064123px" viewBox="0 0 40 24.9064123" version="1.1" xmlns="http://www.w3.org/2000/svg" xmlns:xlink="http://www.w3.org/1999/xlink">
    <title>Visa</title>
    <g id="UXDEV-408---Payment-in-footer" stroke="none" stroke-width="1" fill="none" fill-rule="evenodd">
        <g id="Tech-specs" transform="translate(-788.265385, -230.000000)" fill-rule="nonzero">
            <g id="Censimento-Componenti" transform="translate(-35.000000, 40.000000)">
                <g id="Loghi" transform="translate(657.530769, 133.000000)">
                    <g id="Visa" transform="translate(165.734615, 57.000000)">
                        <rect id="Background" stroke="#D2D2D2" stroke-width="0.342105263" fill="#FFFFFF" x="0.171052632" y="0.171052632" width="39.6578947" height="24.564307" rx="2.18947368"></rect>
                        <path d="M25.044545,6.55431902 C22.6777543,6.55431902 20.5626756,7.74548311 20.5626756,9.94625022 C20.5626756,12.4701145 24.313848,12.6444368 24.313848,13.9123562 C24.313848,14.4462232 23.6837566,14.9241179 22.6075858,14.9241179 C21.0802892,14.9241179 19.9387827,14.2563554 19.9387827,14.2563554 L19.450349,16.4771724 C19.450349,16.4771724 20.7653429,17.0412294 22.5112014,17.0412294 C25.0988613,17.0412294 27.1350421,15.7915796 27.1350421,13.5531808 C27.1350421,10.8862629 23.3682401,10.7171215 23.3682401,9.54028081 C23.3682401,9.12207249 23.885491,8.66384243 24.9585807,8.66384243 C26.1693521,8.66384243 27.1571845,9.14948791 27.1571845,9.14948791 L27.6351985,7.00455309 C27.6351985,7.00455309 26.5603514,6.55431902 25.044545,6.55431902 L25.044545,6.55431902 Z M3.39064291,6.71620117 L3.33333333,7.03996482 C3.33333333,7.03996482 4.32904886,7.21690975 5.2258518,7.56987495 C6.3805606,7.97462163 6.46281715,8.21024409 6.65728875,8.9420769 L8.77644049,16.8742889 L11.6171721,16.8742889 L15.9935396,6.71620117 L13.1593205,6.71620117 L10.3472439,13.6227395 L9.19974978,7.76843335 C9.09451455,7.09841264 8.56146452,6.71620117 7.90898206,6.71620117 L3.39064291,6.71620117 Z M17.1332186,6.71620117 L14.9098677,16.8742889 L17.6125352,16.8742889 L19.8280714,6.71620117 L17.1332186,6.71620117 Z M32.2069394,6.71620117 C31.5552274,6.71620117 31.2099275,7.05499228 30.9565488,7.64702166 L26.996978,16.8742889 L29.8311971,16.8742889 L30.3795454,15.3364109 L33.8324476,15.3364109 L34.165885,16.8742889 L36.6666667,16.8742889 L34.4849951,6.71620117 L32.2069394,6.71620117 L32.2069394,6.71620117 Z M32.5755444,9.46060474 L33.4156508,13.272417 L31.1649472,13.272417 L32.5755444,9.46060474 L32.5755444,9.46060474 Z" id="Visa-Logo" fill="#1434CB"></path>
                    </g>
                </g>
            </g>
        </g>
    </g>
</svg>