<?xml version="1.0" encoding="UTF-8"?>
<svg width="40.1326923px" height="24.9955357px" viewBox="0 0 40.1326923 24.9955357" version="1.1" xmlns="http://www.w3.org/2000/svg" xmlns:xlink="http://www.w3.org/1999/xlink">
    <title>A7D9DF8B-05B3-4508-8716-672E7AAFAFDC@1x</title>
    <g id="UXDEV-408---Payment-in-footer" stroke="none" stroke-width="1" fill="none" fill-rule="evenodd">
        <g id="UXDEV-408---Desktop-Payment-in-footer-1" transform="translate(-905.265385, -920.000000)">
            <g id="Group-2" transform="translate(0.000000, 908.000000)">
                <g id="Payment-Methods" transform="translate(439.000000, 12.000000)">
                    <g id="Wechat" transform="translate(466.265385, 0.000000)">
                        <rect id="Background" stroke="#D2D2D2" stroke-width="0.342105263" fill="#FFFFFF" fill-rule="nonzero" x="0.171052632" y="0.171052632" width="39.790587" height="24.6534305" rx="2.18947368"></rect>
                        <g id="WeChat-Pay-Logo" transform="translate(3.344391, 7.893327)">
                            <path d="M31.9571265,7.07779969 L32.3759388,8.20417048 C32.41782,8.32990489 32.4649364,8.48008766 32.4963473,8.59534421 L32.5050726,8.59534421 C32.5399736,8.48008766 32.5801098,8.33514383 32.6272262,8.19718523 L33.0059024,7.07779969 L33.3706181,7.07779969 L32.8471027,8.43642988 C32.5975603,9.09129662 32.4282903,9.42658839 32.1927084,9.63090681 C32.0913851,9.72235916 31.972686,9.79244217 31.8436981,9.83697154 C31.8157773,9.78632851 31.6866435,9.56454698 31.6866435,9.56454698 C31.797289,9.52571301 31.8996862,9.46648117 31.9885374,9.38991585 C32.1144294,9.28577878 32.21423,9.15361197 32.279961,9.00398105 C32.2937929,8.97775906 32.3032255,8.94944088 32.3078818,8.92015811 C32.3051083,8.88888835 32.2974535,8.85824698 32.2851961,8.82934992 L31.5871756,7.07256076 L31.9571265,7.07779969 Z M23.9770064,7.02890298 C24.5598535,7.02890298 24.7012027,7.42706195 24.7012027,7.80950413 L24.7012027,8.52199914 C24.6990715,8.67511553 24.7095775,8.8281466 24.7326136,8.9795327 L24.4185044,8.9795327 L24.3958187,8.74378067 L24.3836033,8.74378067 C24.2466695,8.92730458 24.0295779,9.03332698 23.8007562,9.02842941 C23.649087,9.03969677 23.4996528,8.98676083 23.388845,8.88251302 C23.2780372,8.77826521 23.2160246,8.63227227 23.217909,8.48008766 C23.217909,8.01906148 23.6279961,7.76759265 24.3644078,7.77108528 L24.3644078,7.72742749 C24.3795824,7.60795498 24.3391677,7.48811696 24.2547531,7.40227891 C24.1703385,7.31644087 24.0512488,7.27408482 23.931635,7.28735705 C23.7719708,7.28839458 23.6149927,7.32856683 23.4744316,7.4043599 C23.4377855,7.35197057 23.3487879,7.2035341 23.3487879,7.2035341 C23.5377547,7.08767846 23.7554016,7.02717731 23.9770064,7.02890298 Z M30.4616174,7.02890298 C31.0444646,7.02890298 31.1858137,7.42706195 31.1858137,7.80950413 L31.1858137,8.52199914 C31.1836826,8.67511553 31.1941886,8.8281466 31.2172247,8.9795327 L30.9031154,8.9795327 L30.8751946,8.73854174 L30.8629792,8.73854174 C30.7260454,8.92206565 30.5089538,9.02808804 30.2801321,9.02319048 C30.1284629,9.03445783 29.9790287,8.9815219 29.8682209,8.87727409 C29.7574131,8.77302628 29.6954005,8.62703334 29.6972849,8.47484873 C29.6972849,8.01382255 30.107372,7.76235372 30.8437837,7.76584634 L30.8437837,7.72742749 C30.8589583,7.60795498 30.8185435,7.48811696 30.734129,7.40227891 C30.6497144,7.31644087 30.5306247,7.27408482 30.4110109,7.28735705 C30.2513467,7.28839458 30.0943685,7.32856683 29.9538074,7.4043599 C29.9223965,7.34847794 29.8351439,7.20004148 29.8351439,7.20004148 C30.0238936,7.08555255 30.2409179,7.02626637 30.4616174,7.02890298 Z M19.8988212,6.27973543 C20.1151077,6.27076523 20.3305819,6.31138247 20.5287848,6.3984846 C20.5287848,6.3984846 20.4240817,6.57311573 20.3804554,6.64995342 C20.2304577,6.59357083 20.0712525,6.56573422 19.9110366,6.56787679 C19.2880532,6.56787679 18.874476,6.96603577 18.874476,7.66281398 C18.874476,8.31418809 19.2496621,8.73155649 19.8953311,8.73155649 C20.0615368,8.73220144 20.226682,8.70505085 20.3839455,8.65122617 L20.5252947,8.89221713 C20.3041594,8.98332926 20.0663146,9.02676727 19.8272741,9.01969785 C19.0786471,9.01969785 18.5167405,8.54644749 18.5167405,7.67503816 C18.4970811,7.30191552 18.6361237,6.93789316 18.8994712,6.67302445 C19.1628188,6.40815574 19.5258735,6.26718072 19.8988212,6.28497436 L19.8988212,6.27973543 Z M17.3231253,7.02890298 C17.9391285,7.02890298 18.1136336,7.58248366 18.1136336,7.93349223 C18.112701,7.98723856 18.1086222,8.04088404 18.1014183,8.09415287 L16.7629638,8.09415287 C16.7470681,8.27253911 16.8103813,8.4488931 16.9360855,8.57636983 C17.0617897,8.70384656 17.2371601,8.76954178 17.4156131,8.75600485 C17.5709216,8.75962602 17.7256629,8.73598433 17.8728165,8.6861524 L18.0036954,8.90618762 C17.8024765,8.98940326 17.5861658,9.02984212 17.3684967,9.02493679 C16.7821594,9.02493679 16.4314041,8.63725568 16.4314041,8.06271926 C16.4314041,7.48818285 16.768199,7.02890298 17.3231253,7.02890298 Z M25.7796445,6.52421901 L25.7796445,7.07256076 L26.2769841,7.07256076 L26.2769841,7.33625376 L25.7796445,7.33625376 L25.7796445,8.36483112 C25.7796445,8.60058314 25.8477015,8.73504911 26.0396571,8.73504911 L26.1181844,8.73504911 L26.2577886,8.97604007 C26.1589671,9.00965814 26.0550067,9.02561814 25.9506595,9.02319048 C25.8102638,9.03101762 25.6733816,8.97749944 25.5754735,8.87650033 C25.4704438,8.73373795 25.4225193,8.55684979 25.4411045,8.38054792 L25.4411045,7.33276114 L25.1461908,7.33276114 L25.1461908,7.07779969 L25.4428495,7.07779969 L25.4428495,6.52945794 L25.7796445,6.52421901 Z M28.3972216,6.30418379 C28.6641347,6.28384382 28.9292387,6.36212771 29.1423585,6.52421901 C29.2974972,6.66621258 29.3823763,6.8693032 29.3744504,7.079546 C29.3845481,7.28837694 29.3110715,7.49262581 29.1702794,7.64709717 C28.9508677,7.85099808 28.6577404,7.95634775 28.3588305,7.93873116 C28.2663584,7.94177428 28.1738437,7.93415681 28.0831123,7.91602911 L28.0831123,8.98477163 L27.734102,8.98477163 L27.734102,6.36530468 C27.9571979,6.32734804 28.1831411,6.30865191 28.4094369,6.30942272 L28.3972216,6.30418379 Z M13.3827993,6.33037846 L13.6986536,7.67503816 C13.7771809,8.00509099 13.8469829,8.33689014 13.8940993,8.59185159 L13.9028246,8.59185159 C13.9464509,8.32815858 14.0284683,8.01382255 14.119211,7.66979922 L14.4682212,6.33037846 L14.8172315,6.33037846 L15.1470462,7.67678447 C15.2220834,7.9911205 15.2936305,8.30720285 15.3320217,8.58661265 L15.3407469,8.58661265 C15.3965886,8.29497867 15.4698807,7.99985206 15.5536432,7.66805291 L15.9026535,6.32863214 L16.2516638,6.32863214 L15.5082719,8.98477163 L15.1470462,8.98477163 L14.8154865,7.60169308 C14.7412308,7.3140938 14.6829729,7.0225942 14.6409813,6.72853743 L14.6409813,6.72853743 C14.5878214,7.02302872 14.5190861,7.31449022 14.4350653,7.60169308 L14.052899,8.98477163 L13.6934184,8.98477163 L13.0198286,6.33037846 L13.3827993,6.33037846 Z M21.4100357,6.18892724 L21.4100357,7.37816523 L21.4100357,7.37816523 C21.4696887,7.27566207 21.5559073,7.19119132 21.6595781,7.13368165 C21.7656912,7.07186491 21.8858266,7.0382027 22.0085884,7.03588822 C22.2633659,7.03588822 22.673453,7.19305624 22.673453,7.8514156 L22.673453,8.98651794 L22.3244427,8.98651794 L22.3244427,7.88983445 C22.3244427,7.58248366 22.2092693,7.32228327 21.8829447,7.32228327 C21.6691204,7.32628368 21.4819785,7.46709352 21.418761,7.67154553 C21.3977347,7.72721173 21.3893883,7.78687229 21.3943303,7.84617666 L21.3943303,8.98477163 L21.04532,8.98477163 L21.04532,6.19067355 L21.4100357,6.18892724 Z M23.5634292,8.44341513 C23.5562425,8.53188213 23.5876242,8.61913888 23.6494992,8.68273205 C23.7113742,8.74632522 23.7977003,8.78004493 23.8862637,8.77521427 C24.0931667,8.78106045 24.2798267,8.65157773 24.3469573,8.45563931 C24.3598058,8.42033277 24.3668769,8.38318272 24.3678979,8.34562169 L24.3678979,8.01207624 C23.9892217,8.00334468 23.5599391,8.07668975 23.5599391,8.44166882 L23.5634292,8.44341513 Z M30.0480402,8.44341513 C30.0408535,8.53188213 30.0722353,8.61913888 30.1341103,8.68273205 C30.1959853,8.74632522 30.2823114,8.78004493 30.3708747,8.77521427 C30.5777778,8.78106045 30.7644377,8.65157773 30.8315683,8.45563931 C30.8438224,8.42023455 30.8503038,8.38308721 30.8507639,8.34562169 L30.8507639,8.01207624 C30.4738328,8.00334468 30.0445501,8.07668975 30.0445501,8.44166882 L30.0480402,8.44341513 Z M17.3004397,7.28386442 C16.9514294,7.28386442 16.7961198,7.60693201 16.7769242,7.84792297 L17.7890541,7.84792297 C17.7803288,7.62614144 17.686096,7.28211811 17.2969496,7.28211811 L17.3004397,7.28386442 Z M28.4181622,6.58533991 C28.3099131,6.58206734 28.201636,6.5908529 28.0953277,6.61153457 L28.0953277,7.64535086 C28.1881631,7.66543965 28.2830831,7.67423489 28.378026,7.67154553 C28.7916032,7.67154553 29.0446357,7.47071973 29.0446357,7.10399436 C29.0446357,6.73726899 28.7916032,6.58184728 28.4094369,6.58184728 L28.4181622,6.58533991 Z M26.0832834,0.593745841 L26.0832834,1.29227036 L28.1441891,1.29227036 L28.1441891,1.6537568 L26.0832834,1.6537568 L26.0832834,2.4116559 L27.7463174,2.4116559 C27.7463174,2.4116559 27.5369112,3.49960784 26.2857094,4.40943603 C26.9106165,4.70797242 27.5793154,4.90430503 28.2663427,4.99095769 C28.2663427,4.99095769 28.1354639,5.2249634 28.0220355,5.40483347 C27.2758721,5.28711847 26.5570398,5.03570044 25.900053,4.66265117 C25.2297599,5.04871521 24.4946819,5.30910764 23.7309541,5.43102814 C23.6681323,5.33672733 23.4936271,5.02763023 23.4936271,5.02763023 C24.1969767,4.93638617 24.8803842,4.72926864 25.5161417,4.41467496 C24.2614497,3.51532464 24.0206326,2.40467066 24.0206326,2.40467066 L25.6801765,2.40467066 L25.6801765,1.6537568 L23.5389985,1.6537568 L23.5389985,1.29227036 L25.6801765,1.29227036 L25.6801765,0.593745841 L26.0832834,0.593745841 Z M13.8679235,1.92618136 L14.189013,2.10081249 C14.0371935,2.46404524 13.8940993,2.71202145 13.8557082,2.78885914 L13.8557082,5.42229658 L13.4909924,5.42229658 L13.4909924,3.36164925 C13.2850764,3.64105906 13.1629228,3.78600289 13.101846,3.85585535 C13.0599647,3.78076396 12.897675,3.50659309 12.897675,3.50659309 C13.3152588,3.0441564 13.6436327,2.50831336 13.8661785,1.92618136 L13.8679235,1.92618136 Z M29.8054781,0.607716332 L30.2277805,0.702017142 L30.2138201,0.736943368 C30.039315,1.18399906 29.8822603,1.56469492 29.7374211,1.86855309 L29.7374211,5.42229658 L29.3360592,5.42229658 L29.3360592,2.6281985 C29.1899981,2.8703046 29.0297553,3.10355339 28.8561701,3.32672302 L28.6328035,2.93904191 C29.1365457,2.2367999 29.5291363,1.46106513 29.7967528,0.639149935 L29.8054781,0.607716332 Z M19.2287215,0.607716332 L19.6091427,0.702017142 C19.6091427,0.702017142 19.3683256,1.46690149 19.1816051,1.86855309 L19.1816051,5.42229658 L18.7784982,5.42229658 L18.7784982,2.64740793 C18.6625558,2.88577273 18.5271452,3.11415106 18.3736463,3.33021565 L18.1555149,2.95301241 C18.7191665,2.2405174 19.2269764,0.607716332 19.2269764,0.607716332 L19.2287215,0.607716332 Z M16.6687311,0.588506907 L17.0317018,0.660105671 L17.0229765,0.693285585 C16.9479393,0.979680638 16.8659219,1.26083676 16.7769242,1.53151501 L17.8606012,1.53151501 L17.8606012,1.88077727 L17.5901182,1.88077727 C17.5220612,2.85347266 17.3510462,3.60787914 17.0788181,4.12129466 C17.2779832,4.46587114 17.5306871,4.77652636 17.8274452,5.04160072 C17.8012694,5.09224375 17.6197841,5.40308716 17.6197841,5.40308716 C17.6197841,5.40308716 17.0177413,4.78489296 16.8816273,4.48627372 C16.654836,4.83523957 16.3792225,5.14986569 16.0631982,5.42055027 L16.0631982,5.42055027 L15.8677525,5.07128801 C16.1893886,4.79527035 16.4666132,4.47131374 16.6896717,4.1108168 C16.5015017,3.62627144 16.3782771,3.11892415 16.3232109,2.60200383 C16.260389,2.71376776 16.225488,2.77663496 16.1626662,2.86918946 C16.1626662,2.86918946 15.988161,2.57580916 15.9584951,2.5199272 C16.2851344,1.92400631 16.520435,1.28234902 16.6565157,0.616447888 L16.6565157,0.616447888 L16.6687311,0.588506907 Z M32.7458897,0.628672067 L32.7458897,1.77075966 L33.4439103,1.77075966 L33.4439103,2.15320183 L32.7458897,2.15320183 L32.7458897,4.6364565 C32.7449276,5.03216786 32.4241006,5.35244413 32.0286736,5.35244413 L31.5609998,5.35244413 L31.5609998,4.93332942 L32.0286736,4.93332942 C32.1078152,4.93332942 32.1837153,4.90186784 32.2396769,4.84586587 C32.2956385,4.7898639 32.3270774,4.71390893 32.3270774,4.63471019 L32.3270774,2.15320183 L30.0934116,2.15320183 L30.0934116,1.77075966 L32.3270774,1.77075966 L32.3270774,0.628672067 L32.7458897,0.628672067 Z M22.7292946,3.6637611 L22.7292946,5.3332347 L19.8953311,5.3332347 L19.8953311,3.6637611 L22.7292946,3.6637611 Z M15.7665395,3.46468162 L15.7665395,4.38673398 C15.8345965,4.32910571 16.0422576,4.14574302 16.1155498,4.08462213 L16.2900549,4.37276349 L15.5257224,5.01889867 L15.3215514,4.68709952 C15.397119,4.58698168 15.434272,4.46304877 15.4262545,4.33783726 L15.4262545,3.81394388 L14.7282339,3.81394388 C14.7282339,4.60153027 14.696823,4.88792532 14.1715625,5.29830848 C14.1715625,5.29830848 14.0441737,5.07478063 13.9970574,4.98222613 C14.4490257,4.62423232 14.3949291,4.13701147 14.3949291,3.47166686 L15.7665395,3.46468162 Z M22.3453833,4.02699385 L20.2966929,4.02699385 L20.2966929,4.98921138 L22.3453833,4.98921138 L22.3453833,4.02699385 Z M27.187901,2.76964972 L24.5947546,2.76964972 C24.8940223,3.35300592 25.3457237,3.84426145 25.9017981,4.19114712 C26.4513508,3.84275945 26.8959079,3.3514016 27.187901,2.76964972 L27.187901,2.76964972 Z M30.9100956,2.74345505 L31.6395271,3.90475206 L31.2591059,4.11256311 L30.5750457,2.94253454 L30.9100956,2.74345505 Z M17.2585584,1.8702994 L16.6582608,1.8702994 C16.6582608,1.89474776 16.597184,2.03619897 16.5849686,2.06239364 C16.62478,2.61650698 16.734424,3.16336208 16.9112932,3.68995577 C17.1220694,3.10541842 17.2398398,2.49139143 17.2603035,1.8702994 L17.2585584,1.8702994 Z M22.7711758,2.86220422 L22.7711758,3.21146648 L19.858685,3.21146648 L19.858685,2.86220422 L22.7711758,2.86220422 Z M15.9497699,2.68757309 L15.9497699,3.03683535 L14.3076765,3.03683535 L14.3076765,2.68757309 L15.9497699,2.68757309 Z M22.7711758,2.06937889 L22.7711758,2.41864115 L19.858685,2.41864115 L19.858685,2.06937889 L22.7711758,2.06937889 Z M15.3215514,0.674076161 L15.3215514,1.92967398 L15.6915023,1.92967398 L15.6915023,1.03206998 L16.0195719,1.03206998 L16.0195719,2.25448789 L14.2745205,2.25448789 L14.2745205,1.05302571 L14.6235308,1.05302571 L14.6235308,1.92618136 L14.9934817,1.92618136 L14.9934817,0.674076161 L15.3215514,0.674076161 Z M13.8783939,0.590253219 L14.1942482,0.798064263 C13.9372727,1.33537799 13.5821594,1.81986533 13.1472173,2.22654691 L12.9570067,1.89474776 C13.3356613,1.51364317 13.6492809,1.0729608 13.8853741,0.590253219 L13.8783939,0.590253219 Z M21.3018426,0.607716332 L21.5862859,1.2521052 L23.0399138,1.2521052 L23.0399138,1.61533795 L19.5951823,1.61533795 L19.5951823,1.2521052 L21.1901593,1.2521052 L20.9824981,0.742182302 L21.3018426,0.607716332 Z" id="Logo" fill="#4D4D4D"></path>
                            <path d="M4.05724453,6.24131658 C4.00298684,6.26809744 3.94323683,6.28184987 3.88273939,6.28148174 C3.74797762,6.28192849 3.62363332,6.20900745 3.55815982,6.09113381 L3.5337291,6.03699816 L2.52334434,3.80346601 C2.51149133,3.77898879 2.50551574,3.7520792 2.50589382,3.724882 C2.50495667,3.67518572 2.52403059,3.62720026 2.55882231,3.5917265 C2.59361403,3.55625274 2.6412,3.53627153 2.69086927,3.53628038 C2.73142748,3.53570817 2.77091805,3.54929286 2.80255256,3.57469923 L4.00314793,4.42864545 C4.09379785,4.48832257 4.20002653,4.51991045 4.30853193,4.51945364 C4.37442299,4.52017747 4.43994678,4.50954432 4.50223264,4.48802004 L10.1474739,1.97333177 C9.13534413,0.78060115 7.46882003,0 5.58416451,0 C2.49716857,0 0,2.09557356 0,4.65915854 C0,6.05620758 0.752117157,7.32752221 1.93002686,8.18146843 C2.0283504,8.25142217 2.08684833,8.36459982 2.08708149,8.4853266 C2.08283023,8.52479836 2.07344385,8.56354512 2.05916066,8.60058314 L1.80787326,9.54359124 C1.79284042,9.58771859 1.78288744,9.63341818 1.77820739,9.67980353 C1.77820739,9.78300086 1.861805,9.86665883 1.96492789,9.86665883 C2.00342821,9.86470932 2.04073973,9.85266465 2.07312107,9.83173261 L3.29465706,9.13320809 C3.38433164,9.07913966 3.48664129,9.04962911 3.5913158,9.04763884 C3.64746953,9.04768083 3.70331704,9.05591693 3.75709568,9.07208719 C4.35007829,9.24186147 4.96390079,9.32768232 5.58067441,9.32704864 C8.6659253,9.32704864 11.1648389,7.24195295 11.1648389,4.6678901 C11.1615795,3.90273909 10.9413063,3.15423842 10.5296402,2.50944934 L4.09738071,6.21686822 L4.05724453,6.24131658 Z" id="logotype" fill="#1AAD19"></path>
                        </g>
                    </g>
                </g>
            </g>
        </g>
    </g>
</svg>